<svg xmlns="http://www.w3.org/2000/svg" viewBox="0 0 512 512" width="34" height="42">
    <path stroke="#fff" stroke-width="24" fill="currentColor" d="M 256.00 450.00 C 282.71 397.29 307.12 350.07 328.68 294.68 C 350.23 239.29 375.03 174.01 374.00 112.00 C 372.97 49.99 314.24 2.77 255.00 3.00 C 195.76 3.23 137.81 51.11 137.00 113.00 C 136.19 174.89 161.39 239.76 183.02 294.98 C 204.66 350.19 227.96 398.34 256.00 450.00 M 265.00 59.00 C 311.09 65.58 334.31 123.26 305.75 159.75 C 277.19 196.24 218.80 192.07 198.23 148.77 C 177.66 105.47 215.55 51.94 265.00 59.00 Z" />
</svg>
